<?xml version="1.0" encoding="UTF-8" standalone="no"?>
<svg
   xmlns:dc="http://purl.org/dc/elements/1.1/"
   xmlns:cc="http://creativecommons.org/ns#"
   xmlns:rdf="http://www.w3.org/1999/02/22-rdf-syntax-ns#"
   xmlns:svg="http://www.w3.org/2000/svg"
   xmlns="http://www.w3.org/2000/svg"
   xmlns:sodipodi="http://sodipodi.sourceforge.net/DTD/sodipodi-0.dtd"
   xmlns:inkscape="http://www.inkscape.org/namespaces/inkscape"
   enable-background="new 0 0 500 500"
   id="Layer_1"
   version="1.1"
   viewBox="0 0 500 500"
   xml:space="preserve"
   inkscape:version="0.91 r13725"
   sodipodi:docname="cantomate.svg"><metadata
     id="metadata13"><rdf:RDF><cc:Work
         rdf:about=""><dc:format>image/svg+xml</dc:format><dc:type
           rdf:resource="http://purl.org/dc/dcmitype/StillImage" /></cc:Work></rdf:RDF></metadata><defs
     id="defs11" /><sodipodi:namedview
     pagecolor="#ffffff"
     bordercolor="#666666"
     borderopacity="1"
     objecttolerance="10"
     gridtolerance="10"
     guidetolerance="10"
     inkscape:pageopacity="0"
     inkscape:pageshadow="2"
     inkscape:window-width="664"
     inkscape:window-height="480"
     id="namedview9"
     showgrid="false"
     inkscape:zoom="0.472"
     inkscape:cx="233.47961"
     inkscape:cy="334.74576"
     inkscape:window-x="0"
     inkscape:window-y="23"
     inkscape:window-maximized="0"
     inkscape:current-layer="Layer_1" /><path
     d="M 250.00097,45.299804 A 204.7,204.7 0 0 0 45.299805,250.00098 204.7,204.7 0 0 0 250.00097,454.7002 204.7,204.7 0 0 0 454.70019,250.00098 204.7,204.7 0 0 0 250.00097,45.299804 Z m 0,22.90039 A 181.8,181.8 0 0 1 431.7998,250.00098 181.8,181.8 0 0 1 250.00097,431.79981 181.8,181.8 0 0 1 68.200195,250.00098 181.8,181.8 0 0 1 250.00097,68.200194 Z"
     id="circle3"
     inkscape:connector-curvature="0"
     style="fill:#ffffff" /><polyline
     points="  214.2,313.4 305.9,245 305.9,245 305.9,245 305.9,245 214.3,176.5 "
     stroke-miterlimit="10"
     id="polyline7"
     transform="translate(-9.986001,7.8378736)"
     style="fill:none;stroke:#ffffff;stroke-width:22;stroke-linecap:round;stroke-linejoin:round;stroke-miterlimit:10;stroke-opacity:1" /></svg>